<?xml version="1.0" encoding="iso-8859-1"?>
<!-- Generator: Adobe Illustrator 19.0.0, SVG Export Plug-In . SVG Version: 6.00 Build 0)  -->
<svg version="1.1" id="Capa_1" xmlns="http://www.w3.org/2000/svg" xmlns:xlink="http://www.w3.org/1999/xlink" x="0px" y="0px"
	 viewBox="0 0 472 472" style="enable-background:new 0 0 472 472;" xml:space="preserve">
<g>
	<g>
		<path d="M464,52H8c-4.418,0-8,3.582-8,8v352c0,4.418,3.582,8,8,8h456c4.418,0,8-3.582,8-8V60C472,55.582,468.418,52,464,52z
			 M80,332v72H48V260h73.752l-1.296,5.208l-7.616,15.2c-0.556,1.116-0.844,2.346-0.84,3.592v40H88C83.582,324,80,327.582,80,332z
			 M360,340v16H120v-16H360z M128,324v-38.112l7.16-14.312c0.253-0.512,0.454-1.048,0.6-1.6l2.48-9.976h203.52l2.48,9.944
			c0.146,0.552,0.347,1.088,0.6,1.6l7.2,14.312V324H128z M144,404H96v-64h8v24c0,4.418,3.582,8,8,8h32V404z M320,404H160v-32h160
			V404z M384,404h-48v-32h32c4.418,0,8-3.582,8-8v-24h8V404z M424,404h-24v-72c0-4.418-3.582-8-8-8h-24v-40
			c0.014-1.238-0.26-2.462-0.8-3.576l-7.616-15.2L358.248,260H424V404z M424,244H48v-16h376V244z M424,212H48v-16h376V212z M424,180
			H48v-16h376V180z M424,148H48v-16h376V148z M456,404h-16V124c0-4.418-3.582-8-8-8H40c-4.418,0-8,3.582-8,8v280H16V68h440V404z"/>
	</g>
</g>
<g>
	<g>
		<path d="M160,276c-13.255,0-24,10.745-24,24s10.745,24,24,24s24-10.745,24-24S173.255,276,160,276z M160,308c-4.418,0-8-3.582-8-8
			s3.582-8,8-8s8,3.582,8,8S164.418,308,160,308z"/>
	</g>
</g>
<g>
	<g>
		<path d="M320,276c-13.255,0-24,10.745-24,24s10.745,24,24,24s24-10.745,24-24S333.255,276,320,276z M320,308c-4.418,0-8-3.582-8-8
			s3.582-8,8-8s8,3.582,8,8S324.418,308,320,308z"/>
	</g>
</g>
<g>
	<g>
		<path d="M268,276h-56c-11.046,0-20,8.954-20,20c0,11.046,8.954,20,20,20h56c11.046,0,20-8.954,20-20
			C288,284.954,279.046,276,268,276z M268,300h-56c-2.209,0-4-1.791-4-4c0-2.209,1.791-4,4-4h56c2.209,0,4,1.791,4,4
			C272,298.209,270.209,300,268,300z"/>
	</g>
</g>
<g>
</g>
<g>
</g>
<g>
</g>
<g>
</g>
<g>
</g>
<g>
</g>
<g>
</g>
<g>
</g>
<g>
</g>
<g>
</g>
<g>
</g>
<g>
</g>
<g>
</g>
<g>
</g>
<g>
</g>
</svg>
